<svg width="104" height="55" viewBox="0 0 104 55" xmlns="http://www.w3.org/2000/svg" xmlns:xlink="http://www.w3.org/1999/xlink"><defs><path d="M95 48v44.633a4 4 0 0 1-4 4H27a4 4 0 0 1-4-4V48a4 4 0 0 1 4-4h64a4 4 0 0 1 4 4z" id="b"/><filter x="-9.7%" y="-9.5%" width="119.4%" height="126.6%" filterUnits="objectBoundingBox" id="a"><feOffset dy="2" in="SourceAlpha" result="shadowOffsetOuter1"/><feGaussianBlur stdDeviation="2" in="shadowOffsetOuter1" result="shadowBlurOuter1"/><feColorMatrix values="0 0 0 0 0 0 0 0 0 0 0 0 0 0 0 0 0 0 0.1 0" in="shadowBlurOuter1"/></filter><path d="M109 76H89a2 2 0 0 1-2-2V38a2 2 0 0 1 2-2h20a2 2 0 0 1 2 2v36a2 2 0 0 1-2 2z" id="d"/><filter x="-29.2%" y="-22.5%" width="158.3%" height="135%" filterUnits="objectBoundingBox" id="c"><feOffset dy="-2" in="SourceAlpha" result="shadowOffsetOuter1"/><feGaussianBlur stdDeviation="2" in="shadowOffsetOuter1" result="shadowBlurOuter1"/><feColorMatrix values="0 0 0 0 0 0 0 0 0 0 0 0 0 0 0 0 0 0 0.14 0" in="shadowBlurOuter1"/></filter></defs><g transform="translate(0 -48)" fill="none" fill-rule="evenodd"><rect fill="#3C64C2" width="93.823" height="70.482" rx="2"/><use fill="#000" filter="url(#a)" xlink:href="#b"/><use fill="#4C7EF3" xlink:href="#b"/><g transform="rotate(90 99 56)"><use fill="#000" filter="url(#c)" xlink:href="#d"/><use fill="#6F97F5" xlink:href="#d"/></g></g></svg>