<svg width="92" height="55" viewBox="0 0 92 55" xmlns="http://www.w3.org/2000/svg" xmlns:xlink="http://www.w3.org/1999/xlink"><defs><path d="M90 10v44a2 2 0 0 1-2 2H22a2 2 0 0 1-2-2V10a2 2 0 0 1 2-2h66a2 2 0 0 1 2 2z" id="b"/><filter y="-10.4%" height="129.2%" filterUnits="objectBoundingBox" id="a"><feOffset dy="2" in="SourceAlpha" result="shadowOffsetOuter1"/><feGaussianBlur stdDeviation="2" in="shadowOffsetOuter1" result="shadowBlurOuter1"/><feColorMatrix values="0 0 0 0 0 0 0 0 0 0 0 0 0 0 0 0 0 0 0.1 0" in="shadowBlurOuter1"/></filter><rect id="d" width="56" height="70.482" rx="2"/><filter x="-12.5%" y="-7.1%" width="125%" height="119.9%" filterUnits="objectBoundingBox" id="c"><feOffset dy="2" in="SourceAlpha" result="shadowOffsetOuter1"/><feGaussianBlur stdDeviation="2" in="shadowOffsetOuter1" result="shadowBlurOuter1"/><feColorMatrix values="0 0 0 0 0 0 0 0 0 0 0 0 0 0 0 0 0 0 0.05 0" in="shadowBlurOuter1"/></filter><path d="M54 56H34a2 2 0 0 1-2-2V16h22a2 2 0 0 1 2 2v36a2 2 0 0 1-2 2z" id="f"/><filter x="-29.2%" y="-12.5%" width="158.3%" height="135%" filterUnits="objectBoundingBox" id="e"><feOffset dy="2" in="SourceAlpha" result="shadowOffsetOuter1"/><feGaussianBlur stdDeviation="2" in="shadowOffsetOuter1" result="shadowBlurOuter1"/><feColorMatrix values="0 0 0 0 0 0 0 0 0 0 0 0 0 0 0 0 0 0 0.14 0" in="shadowBlurOuter1"/></filter></defs><g fill="none" fill-rule="evenodd"><g transform="translate(4 -18)"><use fill="#000" filter="url(#a)" xlink:href="#b"/><use fill="#3C64C2" xlink:href="#b"/></g><g transform="rotate(-180 30 26.24)"><use fill="#000" filter="url(#c)" xlink:href="#d"/><use fill="#4C7EF3" xlink:href="#d"/></g><g transform="rotate(-180 46 27)"><use fill="#000" filter="url(#e)" xlink:href="#f"/><use fill="#6F97F5" xlink:href="#f"/></g></g></svg>