<svg xmlns="http://www.w3.org/2000/svg" viewBox="0 0 32 32">
  <defs>
    <style>
      .cls-1 {
        fill: #9145ff;
      }

      .cls-2 {
        fill: #fff;
        fill-rule: evenodd;
      }
    </style>
  </defs>
  <g id="LabCardTop" transform="translate(-831 -530)">
    <circle id="Ellipse_27" data-name="Ellipse 27" class="cls-1" cx="16" cy="16" r="16" transform="translate(831 530)"/>
    <path id="Path_34" data-name="Path 34" class="cls-2" d="M8.405,18.062l4.553,2.67v1.493L7,18.72V9.573L14.773,5l7.773,4.573V18.72l-5.958,3.506V20.732l4.553-2.67-1.175-.678.154-.267,1.16.67V11L15.389,14.5v9.985l-.616.384-.616-.384V14.5L8.267,11v6.781l1.159-.669.154.267Zm6.2-11.5L8.883,9.923l5.89,3.491,5.89-3.491L14.91,6.547V7.933H14.6Zm0,2.239h.308v1.431H14.6Zm0,2.3h.308v1.431l-.154.07-.154-.07Zm4.8,5.571-.154.267-1.24-.716.154-.267Zm-1.957-1.152-.154.267-1.24-.716.017-.168.137-.1ZM10.141,16.68l1.24-.716.154.267-1.24.716ZM12.1,15.528l1.24-.716.137.1.017.168-1.24.716Z" transform="translate(832.227 531.568)"/>
  </g>
</svg>
